<svg xmlns="http://www.w3.org/2000/svg" xmlns:xlink="http://www.w3.org/1999/xlink" width="500" zoomAndPan="magnify" viewBox="0 0 375 374.999991" height="500" preserveAspectRatio="xMidYMid meet" version="1.0"><defs><filter x="0%" y="0%" width="100%" height="100%" id="id1"><feColorMatrix values="0 0 0 0 1 0 0 0 0 1 0 0 0 0 1 0 0 0 1 0" color-interpolation-filters="sRGB"/></filter><clipPath id="id2"><path d="M 21 39 L 341 39 L 341 361.359375 L 21 361.359375 Z M 21 39 " clip-rule="nonzero"/></clipPath><mask id="id3"><g filter="url(#id1)"><rect x="-37.5" width="450" fill="#000000" y="-37.499999" height="449.999989" fill-opacity="0.098"/></g></mask><clipPath id="id4"><path d="M 1 1 L 319.800781 1 L 319.800781 322.359375 L 1 322.359375 Z M 1 1 " clip-rule="nonzero"/></clipPath><clipPath id="id5"><rect x="0" width="320" y="0" height="323"/></clipPath><clipPath id="id6"><path d="M 0 13.359375 L 100 13.359375 L 100 103 L 0 103 Z M 0 13.359375 " clip-rule="nonzero"/></clipPath><mask id="id7"><g filter="url(#id1)"><rect x="-37.5" width="450" fill="#000000" y="-37.499999" height="449.999989" fill-opacity="0.8078"/></g></mask><clipPath id="id8"><path d="M 0 0.441406 L 99 0.441406 L 99 89 L 0 89 Z M 0 0.441406 " clip-rule="nonzero"/></clipPath><clipPath id="id9"><rect x="0" width="100" y="0" height="90"/></clipPath><mask id="id10"><g filter="url(#id1)"><rect x="-37.5" width="450" fill="#000000" y="-37.499999" height="449.999989" fill-opacity="0.8078"/></g></mask><clipPath id="id11"><path d="M 0.121094 0.238281 L 102 0.238281 L 102 58.320312 L 0.121094 58.320312 Z M 0.121094 0.238281 " clip-rule="nonzero"/></clipPath><clipPath id="id12"><rect x="0" width="102" y="0" height="59"/></clipPath></defs><g clip-path="url(#id2)"><g mask="url(#id3)"><g transform="matrix(1, 0, 0, 1, 21, 39)"><g clip-path="url(#id5)"><g clip-path="url(#id4)"><path fill="#000000" d="M 319.316406 1.765625 L 319.316406 322.242188 L 1.839844 302.683594 Z M 319.316406 1.765625 " fill-opacity="1" fill-rule="nonzero"/></g></g></g></g></g><path fill="#fe7c97" d="M 31.058594 34.484375 L 22.839844 341.683594 L 332.097656 349.894531 L 340.316406 40.765625 Z M 31.058594 34.484375 " fill-opacity="1" fill-rule="nonzero"/><g clip-path="url(#id6)"><g mask="url(#id7)"><g transform="matrix(1, 0, 0, 1, 0, 13)"><g clip-path="url(#id9)"><g clip-path="url(#id8)"><path fill="#fff458" d="M 0 66.164062 L 22.839844 88.988281 C 22.839844 88.988281 94.867188 35.25 98.613281 21.484375 L 73.960938 0.476562 C 73.960938 0.476562 20.0625 53.363281 0 66.164062 Z M 0 66.164062 " fill-opacity="1" fill-rule="nonzero"/></g></g></g></g></g><g mask="url(#id10)"><g transform="matrix(1, 0, 0, 1, 273, 18)"><g clip-path="url(#id12)"><g clip-path="url(#id11)"><path fill="#fff458" d="M 6.164062 0.910156 C 6.164062 0.910156 -1.085938 27.355469 0.726562 32.789062 C 0.726562 32.789062 86.53125 51.988281 91.003906 58.265625 L 102 29.527344 C 102 29.648438 71.90625 16.484375 6.164062 0.910156 Z M 6.164062 0.910156 " fill-opacity="1" fill-rule="nonzero"/></g></g></g></g><path fill="#fe7c97" d="M 49.246094 99.441406 L 49.277344 97.027344 L 316.574219 100.671875 L 316.542969 103.085938 Z M 49.246094 99.441406 " fill-opacity="1" fill-rule="nonzero"/><path fill="#fe7c97" d="M 47.828125 125.050781 L 47.859375 122.636719 L 315.15625 126.28125 L 315.125 128.695312 Z M 47.828125 125.050781 " fill-opacity="1" fill-rule="nonzero"/><path fill="#fe7c97" d="M 47.902344 150.578125 L 47.933594 148.164062 L 315.230469 151.808594 L 315.199219 154.222656 Z M 47.902344 150.578125 " fill-opacity="1" fill-rule="nonzero"/><path fill="#fe7c97" d="M 47.851562 176.105469 L 47.886719 173.691406 L 315.183594 177.335938 L 315.148438 179.75 Z M 47.851562 176.105469 " fill-opacity="1" fill-rule="nonzero"/><path fill="#fe7c97" d="M 49.292969 201.550781 L 49.328125 199.136719 L 316.625 202.78125 L 316.589844 205.195312 Z M 49.292969 201.550781 " fill-opacity="1" fill-rule="nonzero"/><path fill="#fe7c97" d="M 49.246094 227.078125 L 49.28125 224.660156 L 316.578125 228.308594 L 316.542969 230.722656 Z M 49.246094 227.078125 " fill-opacity="1" fill-rule="nonzero"/><path fill="#fe7c97" d="M 47.828125 252.6875 L 47.859375 250.269531 L 315.15625 253.917969 L 315.125 256.332031 Z M 47.828125 252.6875 " fill-opacity="1" fill-rule="nonzero"/><path fill="#fe7c97" d="M 44.480469 278.179688 L 44.515625 275.761719 L 311.8125 279.410156 L 311.777344 281.824219 Z M 44.480469 278.179688 " fill-opacity="1" fill-rule="nonzero"/><path fill="#fe7c97" d="M 44.433594 303.703125 L 44.464844 301.289062 L 311.761719 304.933594 L 311.730469 307.351562 Z M 44.433594 303.703125 " fill-opacity="1" fill-rule="nonzero"/></svg>